<?xml version="1.0" encoding="utf-8"?>
<!-- Generator: Adobe Illustrator 25.2.3, SVG Export Plug-In . SVG Version: 6.00 Build 0)  -->
<svg version="1.1" id="Layer_1" xmlns="http://www.w3.org/2000/svg" xmlns:xlink="http://www.w3.org/1999/xlink" x="0px" y="0px"
	 width="65.882px" height="65.882px" viewBox="0 0 65.882 65.882" style="enable-background:new 0 0 65.882 65.882;"
	 xml:space="preserve">
<style type="text/css">
	.st0{fill:#FFFFFF;}
	.st1{fill:none;stroke:#020203;stroke-width:10;stroke-miterlimit:10;}
	.st2{fill:none;stroke:#020203;stroke-width:6;stroke-miterlimit:10;}
	.st3{fill:none;stroke:#020203;stroke-width:2;stroke-miterlimit:10;}
	.st4{fill:#020203;}
	.st5{fill:#FFFFFF;stroke:#020203;stroke-width:2;stroke-miterlimit:10;}
</style>
<g>
	<rect transform="matrix(-1 -1.224647e-16 1.224647e-16 -1 65.8824 65.8824)" class="st0" width="65.882" height="65.882"/>
</g>
<g>
	<g id="XMLID_1_">
		<g>
			<rect x="22.16" y="29.932" class="st4" width="13.79" height="13.79"/>
			<rect x="8.38" y="43.722" class="st4" width="13.78" height="13.78"/>
		</g>
		<g>
			<polygon class="st3" points="8.38,29.932 8.38,16.142 22.16,16.142 35.95,16.142 49.74,16.142 49.74,29.932 49.74,43.722 
				49.74,57.502 35.95,57.502 22.16,57.502 8.38,57.502 8.38,43.722 			"/>
			<polyline class="st3" points="8.38,43.722 22.16,43.722 35.95,43.722 49.74,43.722 			"/>
			<polyline class="st3" points="8.38,29.932 22.16,29.932 35.95,29.932 49.74,29.932 			"/>
			<polyline class="st3" points="35.95,16.142 35.95,29.932 35.95,43.722 35.95,57.502 			"/>
			<polyline class="st3" points="22.16,16.142 22.16,29.932 22.16,43.722 22.16,57.502 			"/>
		</g>
	</g>
</g>
<polygon class="st5" points="51.388,8.188 60.654,17.454 38.992,39.115 28.185,40.326 29.727,29.85 "/>
</svg>
