<?xml version="1.0" encoding="utf-8"?>
<!-- Generator: Adobe Illustrator 25.2.3, SVG Export Plug-In . SVG Version: 6.00 Build 0)  -->
<svg version="1.1" id="Layer_2" xmlns="http://www.w3.org/2000/svg" xmlns:xlink="http://www.w3.org/1999/xlink" x="0px" y="0px"
	 width="65.882px" height="65.882px" viewBox="0 0 65.882 65.882" style="enable-background:new 0 0 65.882 65.882;"
	 xml:space="preserve">
<style type="text/css">
	.st0{fill:#FFFFFF;}
	.st1{fill:none;stroke:#000000;stroke-width:2;stroke-miterlimit:10;}
	.st2{fill:none;stroke:#000000;stroke-miterlimit:10;}
	.st3{fill:none;stroke:#000000;stroke-width:6;stroke-miterlimit:10;}
</style>
<g>
	<rect class="st0" width="65.882" height="65.882"/>
	<g>
		<g>
			<g>
				<g>
					<line class="st1" x1="25.3" y1="20.103" x2="25.353" y2="30.597"/>
					<g>
						<line class="st1" x1="20.079" y1="25.377" x2="30.573" y2="25.323"/>
					</g>
				</g>
			</g>
			<g>
				<line class="st1" x1="40.412" y1="20.026" x2="40.466" y2="30.52"/>
				<g>
					<line class="st1" x1="35.192" y1="25.3" x2="45.686" y2="25.246"/>
				</g>
			</g>
			<g>
				<line class="st1" x1="25.376" y1="35.175" x2="25.43" y2="45.669"/>
				<g>
					<line class="st1" x1="20.156" y1="40.449" x2="30.65" y2="40.395"/>
				</g>
			</g>
			<g>
				<line class="st1" x1="40.489" y1="35.098" x2="40.542" y2="45.592"/>
				<g>
					<line class="st1" x1="35.269" y1="40.372" x2="45.762" y2="40.318"/>
				</g>
			</g>
			<line class="st1" x1="25.244" y1="9.245" x2="25.275" y2="15.302"/>
			<line class="st1" x1="25.455" y1="50.657" x2="25.486" y2="56.715"/>
			<line class="st1" x1="40.357" y1="9.168" x2="40.388" y2="15.225"/>
			<line class="st1" x1="40.568" y1="50.58" x2="40.599" y2="56.638"/>
			<line class="st1" x1="9.074" y1="25.433" x2="15.131" y2="25.402"/>
			<line class="st1" x1="50.674" y1="25.221" x2="56.731" y2="25.19"/>
			<line class="st1" x1="9.151" y1="40.505" x2="15.208" y2="40.474"/>
			<line class="st1" x1="50.751" y1="40.293" x2="56.808" y2="40.262"/>
		</g>
		<g>
			<rect x="9.885" y="9.884" transform="matrix(1 -0.0051 0.0051 1 -0.1673 0.1682)" class="st1" width="46.114" height="46.114"/>
		</g>
	</g>
</g>
</svg>
