<?xml version="1.0" encoding="utf-8"?>
<!-- Generator: Adobe Illustrator 25.2.3, SVG Export Plug-In . SVG Version: 6.00 Build 0)  -->
<svg version="1.1" id="Layer_1" xmlns="http://www.w3.org/2000/svg" xmlns:xlink="http://www.w3.org/1999/xlink" x="0px" y="0px"
	 width="45.5px" height="45.5px" viewBox="0 0 45.5 45.5" style="enable-background:new 0 0 45.5 45.5;" xml:space="preserve">
<style type="text/css">
	.st0{fill:#1D1D1B;}
</style>
<path class="st0" d="M22.32,13.11L7.46,33.18c-0.74,1-0.03,2.42,1.22,2.42H38.4c1.25,0,1.96-1.42,1.22-2.42L24.76,13.11
	C24.15,12.29,22.93,12.29,22.32,13.11z"/>
<path class="st0" d="M27.97,45.5h-8.86c-1,0-1.8-0.81-1.8-1.8V32.43c0-1,0.81-1.8,1.8-1.8h8.86c1,0,1.8,0.81,1.8,1.8v11.26
	C29.77,44.69,28.96,45.5,27.97,45.5z"/>
<path class="st0" d="M20.87,5.99L10.65,20.2c-0.68,0.94,0,2.25,1.15,2.25h23.48c1.16,0,1.83-1.31,1.15-2.25L26.21,5.99
	C24.9,4.17,22.18,4.17,20.87,5.99z"/>
</svg>
